<?xml version="1.0" encoding="UTF-8"?>
<svg id="Layer_1" data-name="Layer 1" xmlns="http://www.w3.org/2000/svg" viewBox="0 0 375.8 378.92">
  <defs>
    <style>
      .cls-1, .cls-2, .cls-3, .cls-4 {
        fill-rule: evenodd;
      }

      .cls-1, .cls-2, .cls-3, .cls-4, .cls-5, .cls-6 {
        stroke-width: 0px;
      }

      .cls-1, .cls-6 {
        fill: #3bceac;
      }

      .cls-2, .cls-5 {
        fill: #38363a;
      }

      .cls-3 {
        fill: #ffd23f;
      }

      .cls-4 {
        fill: #ee38b4;
      }
    </style>
  </defs>
  <g>
    <path class="cls-5" d="m265.47,252.51c-2.87,2.35-6.36,4.11-10.48,5.29s-8.45,1.76-13.02,1.76c-11.49,0-20.36-3-26.63-9.01-6.27-6-9.4-14.75-9.4-26.24v-50.32h-17.23v-19.58h17.23v-23.89h24.48v23.89h28v19.58h-28v49.73c0,5.09,1.24,8.98,3.72,11.65,2.48,2.68,6.07,4.01,10.77,4.01,5.48,0,10.05-1.44,13.71-4.31l6.85,17.43Z"/>
    <path class="cls-6" d="m279.37,254.96c-3.13-3.07-4.7-6.95-4.7-11.65s1.53-8.74,4.6-11.75c3.07-3,6.88-4.5,11.45-4.5s8.39,1.5,11.45,4.5c3.07,3,4.6,6.92,4.6,11.75s-1.57,8.58-4.7,11.65c-3.13,3.07-6.92,4.6-11.36,4.6s-8.22-1.53-11.36-4.6Z"/>
  </g>
  <g>
    <path class="cls-2" d="m155.61,107.87l.26,59.62c-37.47-31.05-82.78-1.97-86.63,36.18l20.82.5c1.99-16.42,15.95-29.15,32.9-29.15,18.32,0,33.17,14.85,33.17,33.17,0,1.94-.2,3.84-.52,5.69,0,.02,0,.05,0,.07l-.1.65s-.02.09-.03.13c-.02.12-.05.24-.08.36-.31,1.8-.8,3.42-1.46,4.86-1.94,5.09-5.08,9.58-9.1,13.12l11.37,17.22c9.88-7.46,18.56-16.42,19.98-41.18v-101.23h-20.6Z"/>
    <path class="cls-4" d="m89.87,209.51l-14.43.18-6.03.07c.08,6.92,1.46,13.53,3.91,19.59l5.61-2.25,13.72-5.51c-1.65-3.72-2.61-7.79-2.78-12.08Z"/>
    <path class="cls-3" d="m122.47,240.85c-11.94,0-22.37-6.32-28.21-15.78l-13,7.39-5.24,2.98c9.3,16.26,26.8,27.22,46.85,27.28l-.1-21.88c-.18,0-.11,0-.3,0Z"/>
    <path class="cls-1" d="m139.3,235.65c-3.79,2.4-7.2,3.68-11.82,4.37l1.73,15.95.79,5.94c7.8-1.06,14.65-3.77,21.07-7.81l-11.76-18.45Z"/>
  </g>
</svg>
